<svg width="11" height="13" viewBox="0 0 11 13" fill="none" xmlns="http://www.w3.org/2000/svg">
<path d="M9.39059 1.44687C8.54069 0.606476 7.29859 0.180664 5.69924 0.180664C4.36019 0.180664 3.13906 0.483828 1.73973 1.16357L1.53971 1.26117L1.90482 2.07306L2.12057 1.97028C3.41857 1.35273 4.51567 1.0772 5.6774 1.0772C8.24982 1.0772 9.60808 2.33909 9.60808 4.7264V5.31977C8.34128 4.93336 7.0232 4.73627 5.69749 4.73503C2.57129 4.73503 0.550049 6.18607 0.550049 8.43001V8.47406C0.550049 10.8786 2.80713 11.973 4.90437 11.973C7.23395 11.973 8.83505 10.8925 9.60808 9.82577V12.0015H10.5366V4.70394C10.5366 3.31595 10.14 2.18967 9.38884 1.44687H9.39059ZM9.60808 6.25949V7.49374C9.60808 9.21685 7.81831 11.0764 4.92621 11.0764C3.34607 11.0764 1.50127 10.3898 1.50127 8.45246V8.40841C1.50127 6.36141 3.68062 5.63243 5.7202 5.63243C7.17019 5.63243 8.40704 5.83195 9.60808 6.25949Z" fill="#282828"/>
</svg>
