<svg width="12" height="13" viewBox="0 0 12 13" fill="none" xmlns="http://www.w3.org/2000/svg">
<path d="M6.72259 1.0757C7.75334 1.06501 8.76013 1.38302 9.59373 1.9826L9.60945 1.99383H11.0228L10.9171 1.89623C10.1475 1.16121 8.8766 0.182617 6.74355 0.182617C3.52127 0.182617 0.898193 2.82386 0.898193 6.0697V6.11116C0.898193 9.35959 3.51166 12.0017 6.72259 12.0017C8.3464 12.0017 9.71777 11.4334 10.9153 10.2639L11.0175 10.1637H9.61295L9.59723 10.1749C8.77594 10.7879 7.77248 11.1147 6.74355 11.1043C4.04448 11.1043 1.85204 8.85863 1.85204 6.09043V6.04897C1.85204 3.2609 3.99295 1.07743 6.72608 1.07743" fill="#282828"/>
</svg>
