<svg width="8" height="9" viewBox="0 0 8 9" fill="none" xmlns="http://www.w3.org/2000/svg">
<path d="M0.735249 6.35352C0.785919 6.30641 0.832928 6.25559 0.875879 6.2015L5.2433 0.673728C5.36776 0.516238 5.52237 0.38453 5.6983 0.286123C5.87424 0.187716 6.06805 0.124538 6.26868 0.100197C6.46931 0.0758549 6.67282 0.090826 6.86759 0.144255C7.06237 0.197684 7.24459 0.288525 7.40386 0.411591C7.56314 0.534656 7.69634 0.687537 7.79586 0.861504C7.89537 1.03547 7.95927 1.22712 7.98389 1.4255C8.0085 1.62388 7.99336 1.82512 7.93933 2.01771C7.88529 2.21031 7.79343 2.3905 7.66897 2.54799L3.30155 8.07576C3.23805 8.15623 3.1833 8.24308 3.1382 8.33488C2.93975 7.83068 2.6151 7.38455 2.19466 7.0383C1.77422 6.69206 1.27176 6.45703 0.734375 6.35524" fill="#282828"/>
</svg>
