<svg width="8" height="9" viewBox="0 0 8 9" fill="none" xmlns="http://www.w3.org/2000/svg">
<path d="M0.710612 2.54439C0.582665 2.38696 0.487651 2.20594 0.431095 2.01187C0.374539 1.8178 0.357568 1.61454 0.381173 1.41393C0.404777 1.21331 0.468486 1.01934 0.56859 0.843287C0.668695 0.667237 0.803195 0.512625 0.964276 0.388442C1.12536 0.264258 1.3098 0.172983 1.50688 0.119923C1.70396 0.0668637 1.90974 0.0530792 2.11226 0.0793713C2.31478 0.105663 2.50998 0.171508 2.68653 0.273074C2.86308 0.374641 3.01744 0.509903 3.14064 0.670994L7.50806 6.19877C7.54126 6.24109 7.57882 6.28514 7.61551 6.32401C7.08066 6.41033 6.57635 6.62825 6.14897 6.95773C5.72159 7.28721 5.38486 7.71766 5.16975 8.2095C5.14202 8.16181 5.11078 8.11619 5.07629 8.07303L0.710612 2.54439Z" fill="#282828"/>
</svg>
