<svg width="9" height="10" viewBox="0 0 9 10" fill="none" xmlns="http://www.w3.org/2000/svg">
<path d="M7.67157 6.53054C7.80013 6.6877 7.89578 6.8686 7.95294 7.06268C8.01011 7.25676 8.02764 7.46015 8.00453 7.66099C7.98141 7.86184 7.9181 8.05613 7.8183 8.23255C7.71849 8.40897 7.58417 8.56398 7.42318 8.68856C7.26219 8.81314 7.07774 8.9048 6.88056 8.95819C6.68339 9.01158 6.47744 9.02564 6.27472 8.99956C6.072 8.97347 5.87656 8.90775 5.69978 8.80623C5.52299 8.70472 5.36841 8.56943 5.24503 8.40825L0.877608 2.88048C0.805907 2.78798 0.722204 2.70522 0.628662 2.63432C1.17596 2.5515 1.69256 2.33103 2.12893 1.99407C2.56531 1.6571 2.90682 1.21493 3.12072 0.709961C3.17007 0.813672 3.23101 0.911594 3.3024 1.0019L7.67157 6.53054Z" fill="#282828"/>
</svg>
